<svg width="32" height="32" viewBox="0 0 32 32" fill="none" xmlns="http://www.w3.org/2000/svg">
<path fill-rule="evenodd" clip-rule="evenodd" d="M7.94775 12.2746C7.94775 7.88068 11.3655 4.2874 15.6877 4.00533C16.9075 3.96875 17.8857 4.12603 18.7798 4.34715C22.1791 5.38092 24.6532 8.5368 24.6532 12.2744V15.1193H25.1314C25.9344 15.1193 26.6009 15.7873 26.6009 16.5893V26.3291C26.586 27.1311 25.9334 27.798 25.1314 27.798H24.6532V27.7987H18.3674V27.798H11.1643V27.7987H7.94775V27.798H7.47016C6.66809 27.798 6 27.132 6 26.3291V16.5896C6 15.7867 6.66708 15.1194 7.47016 15.1194H7.94775V12.2746ZM21.4371 12.2746C21.4371 9.66132 19.5084 7.54345 16.9818 7.24318C15.8872 7.15341 14.812 7.22218 13.7662 7.83444C12.2081 8.6949 11.1645 10.3513 11.1645 12.2744V15.1193L21.4371 15.1194V12.2746ZM8.58934 19.8161C8.58934 18.5184 9.70134 17.6658 11.3326 17.6658C11.9906 17.6658 12.7046 17.805 13.2421 18.046L12.7973 19.325C12.3431 19.1674 11.7682 19.0746 11.2491 19.0746C10.6188 19.0746 10.2575 19.2508 10.2575 19.5752C10.2575 19.9461 10.7376 20.0652 11.3246 20.2108C12.2483 20.4399 13.4368 20.7346 13.4368 22.1798C13.4368 23.4681 12.491 24.2836 10.7856 24.2836C9.98856 24.2836 9.136 24.0702 8.47796 23.7736L8.92294 22.4576C9.56243 22.7264 10.2668 22.8377 10.8507 22.8377C11.4717 22.8377 11.7494 22.6709 11.7494 22.3743C11.7494 21.9752 11.2377 21.8372 10.6262 21.6724C9.71791 21.4275 8.58934 21.1232 8.58934 19.8161ZM14.0849 19.8161C14.0849 18.5184 15.1971 17.6658 16.8284 17.6658C17.2921 17.6658 17.7811 17.7381 18.219 17.8633C18.4024 17.9157 18.5791 17.9749 18.7378 18.046L18.2928 19.325C17.8832 19.1828 17.378 19.1037 16.9016 19.0876C16.8778 19.0868 16.8536 19.084 16.8294 19.0812C16.801 19.0779 16.7726 19.0746 16.7451 19.0746C16.1149 19.0746 15.7537 19.2508 15.7537 19.5752C15.7537 19.7336 15.8469 19.8436 15.9929 19.9318C16.1885 20.0501 16.4888 20.1249 16.8239 20.2085C17.746 20.4383 18.9323 20.734 18.9323 22.1797C18.9323 23.468 17.987 24.2836 16.2816 24.2836C15.7449 24.2836 15.1871 24.1818 14.6762 24.028C14.4285 23.9534 14.1886 23.8704 13.9736 23.7736L14.1935 23.1232L14.4185 22.4576C15.058 22.7264 15.7625 22.8377 16.3464 22.8377C16.9674 22.8377 17.2456 22.6709 17.2456 22.3743C17.2456 21.9747 16.7339 21.8355 16.1223 21.6692C15.6535 21.5417 15.1261 21.3982 14.7256 21.1094C14.3515 20.8396 14.0849 20.4468 14.0849 19.8161ZM19.8589 24.1908V17.7586L21.4625 17.7584V22.7725H24.1226V24.1908H19.8589Z" fill="white"/>
</svg>
